Coordinates
version=1
nRows=13
nColumns=40
inDegrees=yes

Units are S.I. units (second, meters, Newtons, ...)
Angles are in degrees.

endheader
time	pelvis_tilt	pelvis_list	pelvis_rotation	pelvis_tx	pelvis_ty	pelvis_tz	hip_flexion_r	hip_adduction_r	hip_rotation_r	knee_angle_r	knee_angle_r_beta	ankle_angle_r	subtalar_angle_r	mtp_angle_r	hip_flexion_l	hip_adduction_l	hip_rotation_l	knee_angle_l	knee_angle_l_beta	ankle_angle_l	subtalar_angle_l	mtp_angle_l	lumbar_extension	lumbar_bending	lumbar_rotation	arm_flex_r	arm_add_r	arm_rot_r	elbow_flex_r	pro_sup_r	wrist_flex_r	wrist_dev_r	arm_flex_l	arm_add_l	arm_rot_l	elbow_flex_l	pro_sup_l	wrist_flex_l	wrist_dev_l
     46.62500000	     -5.50744018	     -4.40621673	    -10.44748671	      0.95722358	      0.92554836	      0.53520568	     19.10811194	      4.62457063	     -6.38432983	     21.33183075	     21.33183075	      9.12273888	      0.82759182	     -1.54285894	      2.10358803	    -10.22039438	    -15.02153427	     29.28520986	     29.28520986	     15.20305677	    -15.40886250	     -2.44122196	     -9.44291182	      8.73733472	      0.96180654	     -8.95061687	    -13.05470747	    -20.04267755	     28.83878364	     45.88677845	      0.00000000	      0.00000000	     36.49525292	    -21.22858809	    -11.29147830	     73.41129766	     48.14103659	      0.00000000	      0.00000000
     46.64457143	     -5.33743956	     -4.54375935	     -9.87544149	      0.95755931	      0.92647131	      0.53940385	     18.16518555	      4.88386471	     -6.84810113	     20.82978221	     20.82978221	      9.44592720	      0.90493192	     -1.51445920	      3.46592076	    -11.17395506	    -14.05438672	     32.65602063	     32.65602063	     13.84940571	    -16.25413098	     -2.89892918	     -9.61815815	      8.68413544	      1.01576931	     -8.04873607	    -13.16262995	    -19.91419677	     29.17933452	     45.87524826	      0.00000000	      0.00000000	     35.70427617	    -20.43394212	    -10.95876251	     73.03369347	     48.10450903	      0.00000000	      0.00000000
     46.66414286	     -5.26674319	     -4.66167990	     -9.25748305	      0.95766772	      0.92704025	      0.54344669	     17.37342674	      5.16923678	     -7.20546880	     20.35479399	     20.35479399	      9.74595138	      0.71600326	     -1.53547874	      5.09989656	    -12.13272060	    -13.00135631	     36.11531272	     36.11531272	     11.74357540	    -17.25226262	     -4.63208410	     -9.55090837	      8.62774600	      1.06054645	     -7.16867081	    -13.41602202	    -18.88316292	     29.23841579	     45.84692467	      0.00000000	      0.00000000	     34.95822496	    -19.49225554	    -10.52007968	     71.39818264	     48.02993204	      0.00000000	      0.00000000
     46.68371429	     -5.03453558	     -4.82791237	     -8.60775925	      0.95764295	      0.92760723	      0.54732203	     16.49034436	      5.45620084	     -7.66169084	     20.02756738	     20.02756738	     10.09743765	      0.60627562	     -1.55969096	      6.77479786	    -13.08197751	    -11.80748779	     39.85332177	     39.85332177	     10.07447254	    -17.91273788	     -4.74245646	     -9.75452509	      8.56884613	      1.08378721	     -6.15212518	    -13.51875042	    -18.76404665	     29.56837756	     45.83731828	      0.00000000	      0.00000000	     33.80048464	    -18.59544295	    -10.14431844	     70.68070138	     47.98159177	      0.00000000	      0.00000000
     46.70328571	     -4.93348761	     -4.93155082	     -7.93231258	      0.95736806	      0.92776970	      0.55100653	     15.84888965	      5.73184042	     -7.92360177	     19.81262239	     19.81262239	     10.40914453	      0.11585056	     -1.62117334	      8.86121518	    -13.88232063	    -10.37381688	     43.86662617	     43.86662617	      9.01246670	    -18.28228665	     -2.79544403	     -9.65549364	      8.46734765	      1.07700234	     -4.99563661	    -13.73435444	    -17.84185246	     29.23197571	     45.83531775	      0.00000000	      0.00000000	     32.84013206	    -17.65493010	     -9.59882516	     68.16701965	     47.88377888	      0.00000000	      0.00000000
     46.72285714	     -4.71757204	     -5.11505721	     -7.24344471	      0.95701046	      0.92778145	      0.55456316	     15.17102355	      6.04233101	     -8.32561025	     19.77318758	     19.77318758	     10.81763748	     -0.18415390	     -1.67750476	     10.82997706	    -14.73005151	     -9.03600176	     47.68405665	     47.68405665	      7.37339186	    -18.67163535	     -2.19076901	     -9.78317261	      8.40041372	      0.98622416	     -3.88792746	    -13.82310661	    -17.71398308	     29.55697566	     45.82818506	      0.00000000	      0.00000000	     31.25016379	    -16.82130710	     -9.17049089	     66.92919933	     47.81927536	      0.00000000	      0.00000000
     46.74242857	     -4.46592589	     -5.16935471	     -6.54799710	      0.95646099	      0.92759946	      0.55774402	     14.66506600	      6.20125290	     -8.58861080	     20.07046095	     20.07046095	     11.40115901	     -0.76606773	     -1.50375488	     13.06600668	    -15.10536983	     -7.26106848	     51.81576644	     51.81576644	      7.74201935	    -18.77217183	      4.04917667	     -9.82722699	      8.23418976	      1.02835158	     -2.40072711	    -13.99791282	    -16.90644024	     28.88845096	     45.85494841	      0.00000000	      0.00000000	     30.26310761	    -15.85554831	     -8.32094085	     63.53837209	     47.68845959	      0.00000000	      0.00000000
     46.76200000	     -4.19050541	     -5.28233646	     -5.87722021	      0.95580272	      0.92713142	      0.56083830	     14.22299407	      6.41390815	     -8.87111235	     20.52729927	     20.52729927	     12.04003799	     -1.34016682	     -1.30385208	     15.16689459	    -15.54529641	     -5.76243706	     55.52831139	     55.52831139	      7.45204124	    -18.98242535	      8.02912793	     -9.94496059	      8.11150159	      0.87339808	     -0.89465828	    -14.06251227	    -16.55954425	     28.87281873	     45.87821685	      0.00000000	      0.00000000	     28.65676399	    -15.14383255	     -7.57920360	     60.82987851	     47.57580999	      0.00000000	      0.00000000
     46.78157143	     -3.92599341	     -5.39053080	     -5.21887528	      0.95504023	      0.92627965	      0.56382749	     13.92742170	      6.61529540	     -9.12901942	     21.21433818	     21.21433818	     12.68454111	     -2.01990621	     -1.33207136	     17.17490185	    -16.00030197	     -4.51929785	     58.82694971	     58.82694971	      6.74767732	    -19.16303768	      9.92875214	    -10.05591474	      7.96272683	      0.57593376	      0.67504512	    -14.02543633	    -16.43330057	     29.20481374	     45.88069980	      0.00000000	      0.00000000	     26.67794602	    -14.52683497	     -6.97112646	     58.41295531	     47.47748795	      0.00000000	      0.00000000
     46.80114286	     -3.51624344	     -5.52397951	     -4.59566287	      0.95410974	      0.92538629	      0.56646449	     13.56271890	      6.81609890	     -9.35607744	     22.04117729	     22.04117729	     13.52681283	     -2.67712583	     -0.82939967	     19.11352458	    -16.25185167	     -3.17844715	     62.07107254	     62.07107254	      7.64456063	    -19.26211166	     15.33056798	    -10.34336675	      7.86345646	      0.87767058	      2.32484990	    -14.21598835	    -16.08603787	     28.50559648	     45.93438787	      0.00000000	      0.00000000	     25.53934540	    -13.55669755	     -5.79193363	     54.32481657	     47.32066988	      0.00000000	      0.00000000
     46.82071429	     -3.14210792	     -5.62469527	     -3.98702771	      0.95307800	      0.92412225	      0.56897851	     13.37050299	      6.99637506	     -9.47123193	     23.09524600	     23.09524600	     14.40894967	     -3.49859369	     -0.46631128	     20.90563754	    -16.51954807	     -2.14962805	     64.74883026	     64.74883026	      8.01496876	    -19.36758782	     17.91811626	    -10.60639510	      7.73503672	      0.84521760	      4.08744911	    -14.22974678	    -16.01635767	     28.57472731	     45.97356813	      0.00000000	      0.00000000	     23.82852865	    -12.88054628	     -4.75406258	     50.77797319	     47.17964425	      0.00000000	      0.00000000
     46.84028571	     -2.75571081	     -5.71657845	     -3.38715831	      0.95191998	      0.92258762	      0.57126099	     13.21101914	      7.18627444	     -9.51259453	     24.19711621	     24.19711621	     15.27752525	     -4.50772391	     -0.14457273	     22.59693299	    -16.73168044	     -1.24607606	     67.01543127	     67.01543127	      8.57738943	    -19.45217903	     19.78533980	    -10.88493061	      7.59273629	      0.81974059	      5.94538263	    -14.24393624	    -15.95981659	     28.68168767	     46.00807024	      0.00000000	      0.00000000	     22.06979251	    -12.17182098	     -3.69038524	     46.99663142	     47.03292833	      0.00000000	      0.00000000
     46.85985714	     -2.35215916	     -5.78171151	     -2.79833991	      0.95059889	      0.92084744	      0.57324544	     13.10691240	      7.35265250	     -9.47121454	     25.39883536	     25.39883536	     16.12353002	     -5.65217429	      0.10553621	     24.17614618	    -16.85011449	     -0.45064956	     68.83889335	     68.83889335	      9.30721513	    -19.51202651	     21.10007959	    -11.22717962	      7.44329237	      0.72555577	      7.90077351	    -14.24582439	    -15.92249292	     29.01793518	     46.02839173	      0.00000000	      0.00000000	     20.18529647	    -11.54604648	     -2.68195977	     43.26778890	     46.88675708	      0.00000000	      0.00000000
